<mxfile host="app.diagrams.net" modified="2021-10-14T21:09:20.452Z" agent="5.0 (Macintosh)" etag="NoAJTnBWCN7ReQpAzpfo" version="14.5.3" type="github">
  <diagram id="zVyB01YKCpfNJ9keWLHa" name="Page-1">
    <mxGraphModel dx="652" dy="405" grid="1" gridSize="10" guides="1" tooltips="1" connect="1" arrows="1" fold="1" page="1" pageScale="1" pageWidth="1654" pageHeight="1169" math="0" shadow="0">
      <root>
        <mxCell id="0" />
        <mxCell id="1" parent="0" />
        <mxCell id="hSHyRgKjsHBer7e3YNkG-25" style="edgeStyle=orthogonalEdgeStyle;rounded=0;orthogonalLoop=1;jettySize=auto;html=1;entryX=0.5;entryY=0;entryDx=0;entryDy=0;fillColor=#dae8fc;strokeColor=#6c8ebf;" parent="1" source="hSHyRgKjsHBer7e3YNkG-1" target="hSHyRgKjsHBer7e3YNkG-15" edge="1">
          <mxGeometry relative="1" as="geometry" />
        </mxCell>
        <mxCell id="hSHyRgKjsHBer7e3YNkG-1" value="Collect total energy readings of all 5 meters" style="rounded=0;whiteSpace=wrap;html=1;fillColor=#dae8fc;strokeColor=#6c8ebf;" parent="1" vertex="1">
          <mxGeometry x="57" y="404" width="120" height="60" as="geometry" />
        </mxCell>
        <mxCell id="hSHyRgKjsHBer7e3YNkG-11" style="edgeStyle=orthogonalEdgeStyle;rounded=0;orthogonalLoop=1;jettySize=auto;html=1;entryX=0.5;entryY=0;entryDx=0;entryDy=0;fillColor=#dae8fc;strokeColor=#6c8ebf;" parent="1" source="hSHyRgKjsHBer7e3YNkG-2" target="hSHyRgKjsHBer7e3YNkG-10" edge="1">
          <mxGeometry relative="1" as="geometry" />
        </mxCell>
        <mxCell id="hSHyRgKjsHBer7e3YNkG-2" value="Start service" style="ellipse;whiteSpace=wrap;html=1;fillColor=#dae8fc;strokeColor=#6c8ebf;" parent="1" vertex="1">
          <mxGeometry x="57" y="154" width="120" height="80" as="geometry" />
        </mxCell>
        <mxCell id="hSHyRgKjsHBer7e3YNkG-17" style="edgeStyle=orthogonalEdgeStyle;rounded=0;orthogonalLoop=1;jettySize=auto;html=1;entryX=0;entryY=0.5;entryDx=0;entryDy=0;fillColor=#dae8fc;strokeColor=#6c8ebf;" parent="1" source="hSHyRgKjsHBer7e3YNkG-9" target="hSHyRgKjsHBer7e3YNkG-10" edge="1">
          <mxGeometry relative="1" as="geometry">
            <Array as="points">
              <mxPoint x="17" y="654" />
              <mxPoint x="17" y="314" />
            </Array>
          </mxGeometry>
        </mxCell>
        <mxCell id="hSHyRgKjsHBer7e3YNkG-9" value="Update the local cache with current readings" style="rounded=0;whiteSpace=wrap;html=1;fillColor=#dae8fc;strokeColor=#6c8ebf;" parent="1" vertex="1">
          <mxGeometry x="57" y="635" width="120" height="60" as="geometry" />
        </mxCell>
        <mxCell id="hSHyRgKjsHBer7e3YNkG-27" style="edgeStyle=orthogonalEdgeStyle;rounded=0;orthogonalLoop=1;jettySize=auto;html=1;entryX=0.5;entryY=0;entryDx=0;entryDy=0;fillColor=#dae8fc;strokeColor=#6c8ebf;" parent="1" source="hSHyRgKjsHBer7e3YNkG-10" target="hSHyRgKjsHBer7e3YNkG-1" edge="1">
          <mxGeometry relative="1" as="geometry" />
        </mxCell>
        <mxCell id="hSHyRgKjsHBer7e3YNkG-10" value="wait for trigger" style="rounded=0;whiteSpace=wrap;html=1;fillColor=#dae8fc;strokeColor=#6c8ebf;" parent="1" vertex="1">
          <mxGeometry x="57" y="284" width="120" height="60" as="geometry" />
        </mxCell>
        <mxCell id="hSHyRgKjsHBer7e3YNkG-23" value="Yes" style="edgeStyle=orthogonalEdgeStyle;rounded=0;orthogonalLoop=1;jettySize=auto;html=1;entryX=0;entryY=0.5;entryDx=0;entryDy=0;fillColor=#dae8fc;strokeColor=#6c8ebf;" parent="1" source="hSHyRgKjsHBer7e3YNkG-15" target="hSHyRgKjsHBer7e3YNkG-18" edge="1">
          <mxGeometry relative="1" as="geometry" />
        </mxCell>
        <mxCell id="hSHyRgKjsHBer7e3YNkG-24" value="No" style="edgeStyle=orthogonalEdgeStyle;rounded=0;orthogonalLoop=1;jettySize=auto;html=1;entryX=0.5;entryY=0;entryDx=0;entryDy=0;fillColor=#dae8fc;strokeColor=#6c8ebf;" parent="1" source="hSHyRgKjsHBer7e3YNkG-15" target="hSHyRgKjsHBer7e3YNkG-9" edge="1">
          <mxGeometry relative="1" as="geometry" />
        </mxCell>
        <mxCell id="hSHyRgKjsHBer7e3YNkG-15" value="Local cache exists?" style="rhombus;whiteSpace=wrap;html=1;fillColor=#dae8fc;strokeColor=#6c8ebf;" parent="1" vertex="1">
          <mxGeometry x="77" y="504" width="80" height="80" as="geometry" />
        </mxCell>
        <mxCell id="hSHyRgKjsHBer7e3YNkG-21" style="edgeStyle=orthogonalEdgeStyle;rounded=0;orthogonalLoop=1;jettySize=auto;html=1;entryX=0;entryY=0.5;entryDx=0;entryDy=0;fillColor=#dae8fc;strokeColor=#6c8ebf;" parent="1" source="hSHyRgKjsHBer7e3YNkG-18" target="hSHyRgKjsHBer7e3YNkG-31" edge="1">
          <mxGeometry relative="1" as="geometry">
            <mxPoint x="407" y="544" as="targetPoint" />
          </mxGeometry>
        </mxCell>
        <mxCell id="RZQT81cSgJ_5UXznJnwP-21" value="For each meter" style="edgeLabel;html=1;align=center;verticalAlign=middle;resizable=0;points=[];" vertex="1" connectable="0" parent="hSHyRgKjsHBer7e3YNkG-21">
          <mxGeometry x="-0.4154" y="2" relative="1" as="geometry">
            <mxPoint x="21.94" y="2" as="offset" />
          </mxGeometry>
        </mxCell>
        <mxCell id="hSHyRgKjsHBer7e3YNkG-18" value="Read previous run readings" style="rounded=0;whiteSpace=wrap;html=1;fillColor=#dae8fc;strokeColor=#6c8ebf;" parent="1" vertex="1">
          <mxGeometry x="227" y="514" width="120" height="60" as="geometry" />
        </mxCell>
        <mxCell id="hSHyRgKjsHBer7e3YNkG-22" style="edgeStyle=orthogonalEdgeStyle;rounded=0;orthogonalLoop=1;jettySize=auto;html=1;entryX=0.5;entryY=0;entryDx=0;entryDy=0;fillColor=#dae8fc;strokeColor=#6c8ebf;exitX=0.5;exitY=1;exitDx=0;exitDy=0;" parent="1" target="hSHyRgKjsHBer7e3YNkG-20" edge="1" source="hSHyRgKjsHBer7e3YNkG-31">
          <mxGeometry relative="1" as="geometry">
            <mxPoint x="467" y="574" as="sourcePoint" />
          </mxGeometry>
        </mxCell>
        <mxCell id="hSHyRgKjsHBer7e3YNkG-26" style="edgeStyle=orthogonalEdgeStyle;rounded=0;orthogonalLoop=1;jettySize=auto;html=1;entryX=1;entryY=0.5;entryDx=0;entryDy=0;fillColor=#dae8fc;strokeColor=#6c8ebf;" parent="1" source="hSHyRgKjsHBer7e3YNkG-20" target="hSHyRgKjsHBer7e3YNkG-9" edge="1">
          <mxGeometry relative="1" as="geometry" />
        </mxCell>
        <mxCell id="hSHyRgKjsHBer7e3YNkG-20" value="Publish delta (consumption) to influxdb" style="rounded=0;whiteSpace=wrap;html=1;fillColor=#dae8fc;strokeColor=#6c8ebf;" parent="1" vertex="1">
          <mxGeometry x="477" y="635" width="120" height="60" as="geometry" />
        </mxCell>
        <mxCell id="hSHyRgKjsHBer7e3YNkG-30" style="edgeStyle=orthogonalEdgeStyle;rounded=0;orthogonalLoop=1;jettySize=auto;html=1;entryX=1;entryY=0.5;entryDx=0;entryDy=0;exitX=0.5;exitY=1;exitDx=0;exitDy=0;dashed=1;fillColor=#dae8fc;strokeColor=#6c8ebf;" parent="1" source="hSHyRgKjsHBer7e3YNkG-29" target="hSHyRgKjsHBer7e3YNkG-10" edge="1">
          <mxGeometry relative="1" as="geometry" />
        </mxCell>
        <mxCell id="hSHyRgKjsHBer7e3YNkG-29" value="http call to trigger&lt;br&gt;cron &amp;amp; curl command" style="shape=process;whiteSpace=wrap;html=1;backgroundOutline=1;fillColor=#d5e8d4;strokeColor=#82b366;" parent="1" vertex="1">
          <mxGeometry x="241" y="164" width="120" height="60" as="geometry" />
        </mxCell>
        <mxCell id="hSHyRgKjsHBer7e3YNkG-32" value="" style="edgeStyle=orthogonalEdgeStyle;rounded=0;orthogonalLoop=1;jettySize=auto;html=1;dashed=1;exitX=0.5;exitY=1;exitDx=0;exitDy=0;fillColor=#dae8fc;strokeColor=#6c8ebf;" parent="1" source="hSHyRgKjsHBer7e3YNkG-31" target="hSHyRgKjsHBer7e3YNkG-20" edge="1">
          <mxGeometry relative="1" as="geometry" />
        </mxCell>
        <mxCell id="hSHyRgKjsHBer7e3YNkG-31" value="Calculate consumption" style="shape=process;whiteSpace=wrap;html=1;backgroundOutline=1;fillColor=#ffe6cc;strokeColor=#d79b00;" parent="1" vertex="1">
          <mxGeometry x="477" y="514" width="120" height="60" as="geometry" />
        </mxCell>
        <mxCell id="RZQT81cSgJ_5UXznJnwP-20" style="edgeStyle=orthogonalEdgeStyle;rounded=0;orthogonalLoop=1;jettySize=auto;html=1;entryX=0.5;entryY=0;entryDx=0;entryDy=0;dashed=1;" edge="1" parent="1" source="RZQT81cSgJ_5UXznJnwP-1" target="RZQT81cSgJ_5UXznJnwP-2">
          <mxGeometry relative="1" as="geometry" />
        </mxCell>
        <mxCell id="RZQT81cSgJ_5UXznJnwP-24" value="" style="edgeStyle=orthogonalEdgeStyle;rounded=0;orthogonalLoop=1;jettySize=auto;html=1;" edge="1" parent="1" source="RZQT81cSgJ_5UXznJnwP-1" target="RZQT81cSgJ_5UXznJnwP-2">
          <mxGeometry relative="1" as="geometry" />
        </mxCell>
        <mxCell id="RZQT81cSgJ_5UXznJnwP-1" value="Start consumption calculation" style="ellipse;whiteSpace=wrap;html=1;fillColor=#ffe6cc;strokeColor=#d79b00;" vertex="1" parent="1">
          <mxGeometry x="1047" y="234" width="120" height="80" as="geometry" />
        </mxCell>
        <mxCell id="RZQT81cSgJ_5UXznJnwP-19" style="edgeStyle=orthogonalEdgeStyle;rounded=0;orthogonalLoop=1;jettySize=auto;html=1;entryX=0.5;entryY=0;entryDx=0;entryDy=0;entryPerimeter=0;" edge="1" parent="1" source="RZQT81cSgJ_5UXznJnwP-2" target="RZQT81cSgJ_5UXznJnwP-18">
          <mxGeometry relative="1" as="geometry" />
        </mxCell>
        <mxCell id="RZQT81cSgJ_5UXznJnwP-2" value="Calculate delta between current execution time and last execution" style="rounded=0;whiteSpace=wrap;html=1;fillColor=#ffe6cc;strokeColor=#d79b00;" vertex="1" parent="1">
          <mxGeometry x="1047" y="354" width="120" height="60" as="geometry" />
        </mxCell>
        <mxCell id="RZQT81cSgJ_5UXznJnwP-11" style="edgeStyle=orthogonalEdgeStyle;rounded=0;orthogonalLoop=1;jettySize=auto;html=1;dashed=1;exitX=1;exitY=0.5;exitDx=0;exitDy=0;exitPerimeter=0;" edge="1" parent="1" source="RZQT81cSgJ_5UXznJnwP-9" target="RZQT81cSgJ_5UXznJnwP-1">
          <mxGeometry relative="1" as="geometry" />
        </mxCell>
        <mxCell id="RZQT81cSgJ_5UXznJnwP-9" value="Current execution time" style="strokeWidth=1;html=1;shape=mxgraph.flowchart.document2;whiteSpace=wrap;size=0.25;fillColor=#dae8fc;strokeColor=#6c8ebf;" vertex="1" parent="1">
          <mxGeometry x="900" y="24" width="100" height="60" as="geometry" />
        </mxCell>
        <mxCell id="RZQT81cSgJ_5UXznJnwP-14" style="edgeStyle=orthogonalEdgeStyle;rounded=0;orthogonalLoop=1;jettySize=auto;html=1;dashed=1;entryX=0.5;entryY=0;entryDx=0;entryDy=0;" edge="1" parent="1" source="RZQT81cSgJ_5UXznJnwP-13" target="RZQT81cSgJ_5UXznJnwP-1">
          <mxGeometry relative="1" as="geometry" />
        </mxCell>
        <mxCell id="RZQT81cSgJ_5UXznJnwP-13" value="Cached data execution time" style="strokeWidth=1;html=1;shape=mxgraph.flowchart.document2;whiteSpace=wrap;size=0.25;fillColor=#dae8fc;strokeColor=#6c8ebf;" vertex="1" parent="1">
          <mxGeometry x="900" y="94" width="100" height="60" as="geometry" />
        </mxCell>
        <mxCell id="RZQT81cSgJ_5UXznJnwP-17" style="edgeStyle=orthogonalEdgeStyle;rounded=0;orthogonalLoop=1;jettySize=auto;html=1;entryX=0.5;entryY=0;entryDx=0;entryDy=0;dashed=1;" edge="1" parent="1" source="RZQT81cSgJ_5UXznJnwP-16" target="RZQT81cSgJ_5UXznJnwP-1">
          <mxGeometry relative="1" as="geometry" />
        </mxCell>
        <mxCell id="RZQT81cSgJ_5UXznJnwP-16" value="Trigger period" style="strokeWidth=1;html=1;shape=mxgraph.flowchart.document2;whiteSpace=wrap;size=0.25;fillColor=#dae8fc;strokeColor=#6c8ebf;" vertex="1" parent="1">
          <mxGeometry x="900" y="164" width="100" height="60" as="geometry" />
        </mxCell>
        <mxCell id="RZQT81cSgJ_5UXznJnwP-26" style="edgeStyle=orthogonalEdgeStyle;rounded=0;orthogonalLoop=1;jettySize=auto;html=1;" edge="1" parent="1" source="RZQT81cSgJ_5UXznJnwP-18" target="RZQT81cSgJ_5UXznJnwP-25">
          <mxGeometry relative="1" as="geometry" />
        </mxCell>
        <mxCell id="RZQT81cSgJ_5UXznJnwP-27" value="&amp;gt; = delta" style="edgeLabel;html=1;align=center;verticalAlign=middle;resizable=0;points=[];" vertex="1" connectable="0" parent="RZQT81cSgJ_5UXznJnwP-26">
          <mxGeometry x="-0.3442" y="2" relative="1" as="geometry">
            <mxPoint as="offset" />
          </mxGeometry>
        </mxCell>
        <mxCell id="RZQT81cSgJ_5UXznJnwP-29" style="edgeStyle=orthogonalEdgeStyle;rounded=0;orthogonalLoop=1;jettySize=auto;html=1;entryX=0;entryY=0.5;entryDx=0;entryDy=0;" edge="1" parent="1" source="RZQT81cSgJ_5UXznJnwP-18" target="RZQT81cSgJ_5UXznJnwP-28">
          <mxGeometry relative="1" as="geometry" />
        </mxCell>
        <mxCell id="RZQT81cSgJ_5UXznJnwP-30" value="&amp;lt; delta" style="edgeLabel;html=1;align=center;verticalAlign=middle;resizable=0;points=[];" vertex="1" connectable="0" parent="RZQT81cSgJ_5UXznJnwP-29">
          <mxGeometry x="-0.2348" y="2" relative="1" as="geometry">
            <mxPoint y="2" as="offset" />
          </mxGeometry>
        </mxCell>
        <mxCell id="RZQT81cSgJ_5UXznJnwP-18" value="Trigger period " style="strokeWidth=1;html=1;shape=mxgraph.flowchart.decision;whiteSpace=wrap;fillColor=#ffe6cc;strokeColor=#d79b00;" vertex="1" parent="1">
          <mxGeometry x="1057" y="464" width="100" height="100" as="geometry" />
        </mxCell>
        <mxCell id="RZQT81cSgJ_5UXznJnwP-25" value="Return consumption for the period" style="ellipse;whiteSpace=wrap;html=1;fillColor=#ffe6cc;strokeColor=#d79b00;" vertex="1" parent="1">
          <mxGeometry x="1047" y="615" width="120" height="80" as="geometry" />
        </mxCell>
        <mxCell id="RZQT81cSgJ_5UXznJnwP-34" style="edgeStyle=orthogonalEdgeStyle;rounded=0;orthogonalLoop=1;jettySize=auto;html=1;entryX=0;entryY=0.5;entryDx=0;entryDy=0;" edge="1" parent="1" source="RZQT81cSgJ_5UXznJnwP-28" target="RZQT81cSgJ_5UXznJnwP-31">
          <mxGeometry relative="1" as="geometry" />
        </mxCell>
        <mxCell id="RZQT81cSgJ_5UXznJnwP-28" value="# of periods missed: (delta divided by the trigger period)" style="rounded=0;whiteSpace=wrap;html=1;fillColor=#ffe6cc;strokeColor=#d79b00;" vertex="1" parent="1">
          <mxGeometry x="1220" y="484" width="120" height="60" as="geometry" />
        </mxCell>
        <mxCell id="RZQT81cSgJ_5UXznJnwP-35" style="edgeStyle=orthogonalEdgeStyle;rounded=0;orthogonalLoop=1;jettySize=auto;html=1;entryX=1;entryY=0.5;entryDx=0;entryDy=0;exitX=0.5;exitY=1;exitDx=0;exitDy=0;" edge="1" parent="1" source="RZQT81cSgJ_5UXznJnwP-31" target="RZQT81cSgJ_5UXznJnwP-25">
          <mxGeometry relative="1" as="geometry">
            <Array as="points">
              <mxPoint x="1460" y="655" />
            </Array>
          </mxGeometry>
        </mxCell>
        <mxCell id="RZQT81cSgJ_5UXznJnwP-31" value="Approx. for last period: reading divided by periods missed" style="rounded=0;whiteSpace=wrap;html=1;fillColor=#ffe6cc;strokeColor=#d79b00;" vertex="1" parent="1">
          <mxGeometry x="1400" y="484" width="120" height="60" as="geometry" />
        </mxCell>
        <mxCell id="RZQT81cSgJ_5UXznJnwP-33" style="edgeStyle=orthogonalEdgeStyle;rounded=0;orthogonalLoop=1;jettySize=auto;html=1;entryX=0;entryY=0.5;entryDx=0;entryDy=0;dashed=1;" edge="1" parent="1" source="RZQT81cSgJ_5UXznJnwP-32" target="RZQT81cSgJ_5UXznJnwP-1">
          <mxGeometry relative="1" as="geometry" />
        </mxCell>
        <mxCell id="RZQT81cSgJ_5UXznJnwP-32" value="Current reading" style="strokeWidth=1;html=1;shape=mxgraph.flowchart.document2;whiteSpace=wrap;size=0.25;fillColor=#dae8fc;strokeColor=#6c8ebf;" vertex="1" parent="1">
          <mxGeometry x="900" y="244" width="100" height="60" as="geometry" />
        </mxCell>
      </root>
    </mxGraphModel>
  </diagram>
</mxfile>
